<?xml version="1.0" encoding="utf-8"?>
<!-- Generator: Adobe Illustrator 27.5.0, SVG Export Plug-In . SVG Version: 6.00 Build 0)  -->
<svg version="1.1" id="Layer_1" xmlns="http://www.w3.org/2000/svg" xmlns:xlink="http://www.w3.org/1999/xlink" x="0px" y="0px"
	 viewBox="0 0 2372 1898" style="enable-background:new 0 0 2372 1898;" xml:space="preserve">
<g>
	<g>
		<defs>
			<rect id="SVGID_1_" width="2371.708" height="1897.367"/>
		</defs>
		<use xlink:href="#SVGID_1_"  style="overflow:visible;fill:#FFFFFF;"/>
		<clipPath id="SVGID_00000135653870473857375530000003082036320285321871_">
			<use xlink:href="#SVGID_1_"  style="overflow:visible;"/>
		</clipPath>
		<g style="clip-path:url(#SVGID_00000135653870473857375530000003082036320285321871_);">
			<g>
				<g>
					<g>
						<rect x="200.268" y="404.813" style="fill:#D5DFE6;" width="136.107" height="413.783"/>
						<rect x="210.838" y="380.375" style="fill:#D5DFE6;" width="58.107" height="46.808"/>
						<rect x="306.465" y="380.375" style="fill:#D5DFE6;" width="20.045" height="46.808"/>
					</g>
					<g>
						<polygon style="fill:#D5DFE6;" points="846.355,818.596 846.355,528.763 802.044,504.468 734.574,530.216 734.574,818.596 
													"/>
					</g>
					<g>
						<polygon style="fill:#D5DFE6;" points="565.746,423.284 565.746,813.846 469.973,813.846 470.23,802.715 470.32,798.577 
							470.619,785.281 470.709,781.143 471.001,767.864 471.098,763.724 471.392,750.428 471.482,746.286 471.776,733.01 
							471.869,728.853 472.183,715.574 472.276,711.435 472.568,698.139 472.658,694 472.954,680.721 473.044,676.579 
							473.339,663.282 473.431,659.145 473.725,645.848 473.818,641.712 474.112,628.432 474.225,624.293 474.517,610.994 
							474.607,606.859 474.904,593.579 474.994,589.44 475.292,576.143 475.383,572.004 475.674,558.705 475.767,554.569 
							476.063,541.285 476.174,537.144 476.466,523.852 476.556,519.716 476.852,506.414 476.945,502.276 477.239,488.996 
							477.327,484.858 477.628,471.561 477.715,467.423 478.012,454.144 478.105,450.009 478.41,436.707 478.507,432.568 
							478.711,423.284 						"/>
						<polygon style="fill:#D5DFE6;" points="554.099,427.973 493.865,427.631 496.168,399.464 554.099,399.464 						"/>
					</g>
					<g>
						<polygon style="fill:#D5DFE6;" points="2066.806,469.041 2017.039,481.681 2017.039,419.948 2066.806,439.601 						"/>
						<polygon style="fill:#D5DFE6;" points="2084.74,818.596 2084.74,510.168 1999.105,525.823 1999.105,818.596 						"/>
						<polygon style="fill:#D5DFE6;" points="2075.391,516.859 2008.456,527.432 2008.456,481.131 2075.391,462.831 						"/>
					</g>
					<g>
						<polygon style="fill:#D5DFE6;" points="496.913,693.527 496.913,797.26 363,797.26 363,693.527 363.317,691.588 
							364.832,682.317 366.378,672.801 366.603,671.415 369.448,654.018 369.667,652.633 371.573,641.013 488.326,641.013 
							490.229,652.633 490.45,654.018 493.296,671.415 493.519,672.801 495.072,682.238 496.601,691.588 						"/>
						<rect x="380.544" y="603.699" style="fill:#D5DFE6;" width="98.818" height="39.099"/>
					</g>
					<g>
						<polygon style="fill:#D5DFE6;" points="1003.364,451.197 1003.364,420.866 1035.077,392.692 1035.077,461.802 						"/>
						<polygon style="fill:#D5DFE6;" points="1042.412,488.305 1042.412,457.965 968.467,429.798 968.467,467.501 						"/>
						<path style="fill:#D5DFE6;" d="M1054.342,485.009v302.195h-97.801V456.828C1003.723,470.436,1023.59,476.142,1054.342,485.009
							z"/>
					</g>
					<g>
						<path style="fill:#D5DFE6;" d="M1574.293,427.846v-30.577l-11.3-16.189c-7.502-13.284-22.38-42.514-28.323-74.444
							c-8.607,37.207-21.326,62.632-28.118,74.444l-11.505,16.189v30.577h-10.071v346.717h99.386V427.846H1574.293z"/>
					</g>
					<g>
						<polygon style="fill:#D5DFE6;" points="1423.132,818.596 1422.514,793.314 1422.377,787.856 1420.794,723.019 
							1420.672,717.561 1419.086,652.723 1418.95,647.26 1417.368,582.423 1417.244,576.966 1415.58,508.795 1350.659,508.795 
							1348.997,576.966 1348.874,582.423 1347.288,647.26 1347.152,652.723 1345.566,717.561 1345.446,723.019 1343.861,787.856 
							1343.726,793.314 1343.109,818.596 						"/>
					</g>
					<g>
						<rect x="539.112" y="566.016" style="fill:#D5DFE6;" width="136.168" height="236.822"/>
						<rect x="539.112" y="512.867" style="fill:#D5DFE6;" width="113.725" height="56.079"/>
						<rect x="539.112" y="490.42" style="fill:#D5DFE6;" width="92.46" height="25.369"/>
					</g>
					<g>
						<rect x="1645.198" y="616.867" style="fill:#D5DFE6;" width="99.661" height="173.33"/>
						<rect x="1645.198" y="577.968" style="fill:#D5DFE6;" width="83.236" height="41.044"/>
						<rect x="1645.198" y="561.538" style="fill:#D5DFE6;" width="67.672" height="18.567"/>
					</g>
					<g>
						<polygon style="fill:#D5DFE6;" points="1120.981,563.368 1120.981,783.877 1264.312,783.877 1264.312,722.2 1273.367,722.2 
							1273.367,613.521 1208.752,613.521 						"/>
					</g>
					<g>
						<polygon style="fill:#D5DFE6;" points="1961.557,577.554 1961.557,783.877 1795.663,783.877 1795.663,625.423 
							1830.961,615.242 1841.421,612.212 1876.154,602.196 1886.642,599.175 						"/>
						<polygon style="fill:#D5DFE6;" points="1948.137,591.084 1948.137,565.734 1809.078,608.804 1809.078,629.469 						"/>
					</g>
					<g>
						<path style="fill:#D5DFE6;" d="M938.313,674.331v-44.652l-34.927-19.287l-35.576,8.118v39.237l-29.687,9.484v122.967
							c14.618,0,131.192,0,145.353,0V683.466L938.313,674.331z"/>
					</g>
					<rect x="144.345" y="764.077" style="fill:#D5DFE6;" width="2083.019" height="264.181"/>
					<rect x="325.908" y="719.575" style="fill:#D5DFE6;" width="69.525" height="68.472"/>
					<rect x="1042.231" y="666.904" style="fill:#D5DFE6;" width="88.487" height="128.517"/>
					<rect x="1242.38" y="740.643" style="fill:#D5DFE6;" width="128.517" height="44.244"/>
					<rect x="1414.087" y="665.851" style="fill:#D5DFE6;" width="84.273" height="115.876"/>
					<rect x="1553.137" y="725.896" style="fill:#D5DFE6;" width="112.715" height="47.404"/>
					<rect x="1937.634" y="687.973" style="fill:#D5DFE6;" width="87.434" height="103.234"/>
					<rect x="639.475" y="727.3" style="fill:#D5DFE6;" width="136.242" height="68.823"/>
					<rect x="1723.791" y="751.177" style="fill:#D5DFE6;" width="101.128" height="29.496"/>
				</g>
				<g>
					<g>
						<rect x="1696.609" y="745.485" style="fill:#86A1B3;" width="59.555" height="221.283"/>
						<rect x="1699.763" y="736.056" style="fill:#86A1B3;" width="30.807" height="11.219"/>
						<rect x="1737.661" y="736.056" style="fill:#86A1B3;" width="15.351" height="11.219"/>
					</g>
					<g>
						<polygon style="fill:#86A1B3;" points="843.663,516.175 843.663,473.961 824.87,468.901 824.87,438.748 785.87,433.683 
							785.87,516.175 						"/>
						<polygon style="fill:#86A1B3;" points="926.908,540.352 926.908,966.768 785.877,966.768 785.877,487.941 892.376,494.524 
							892.376,533.769 904.618,536.109 						"/>
					</g>
					<g>
						<polygon style="fill:#86A1B3;" points="1483.138,966.768 1370.793,966.768 1370.793,680.125 1389.961,659.484 
							1483.138,680.125 						"/>
						<polygon style="fill:#86A1B3;" points="1410.126,667.733 1410.126,628.934 1472.452,649.1 1472.452,685.15 						"/>
					</g>
					<g>
						<path style="fill:#86A1B3;" d="M1322.232,585.944c0-10.946,0-21.775,0-32.412l-37.582-52.664l-35.741,52.664
							c0,8.944,0,19.874,0,32.412h-9.626v380.824h92.574V585.944H1322.232z"/>
					</g>
					<g>
						<path style="fill:#86A1B3;" d="M278.677,672.253v-76.18l-33.556-59.42l-39.102,59.42v370.694c11.228,0,75.19,0,87.68,0
							v-261.31L278.677,672.253z"/>
					</g>
					<g>
						<polygon style="fill:#86A1B3;" points="2163.277,599.04 2163.277,542.281 2090.856,527.392 2090.856,599.04 2078.812,599.04 
							2078.812,966.768 2175.323,966.768 2175.323,599.04 						"/>
					</g>
					<g>
						<polygon style="fill:#86A1B3;" points="1221.797,941.487 1221.797,796.982 1198.626,767.472 1198.626,686.347 
							1151.773,686.347 1151.773,754.562 1149.706,757.188 1147.925,759.458 1140.672,768.694 1140.672,941.487 						"/>
					</g>
					<g>
						<rect x="1506.415" y="709.763" style="fill:#86A1B3;" width="90.894" height="257.004"/>
						<rect x="1515.689" y="670.536" style="fill:#86A1B3;" width="72.349" height="42.111"/>
						<rect x="1522.157" y="581.254" style="fill:#86A1B3;" width="59.408" height="91.156"/>
						<rect x="1549.803" y="475.745" style="fill:#86A1B3;" width="4.12" height="116.319"/>
					</g>
					<g>
						<polygon style="fill:#86A1B3;" points="1053.838,826.256 1053.838,795.851 953.177,795.851 953.177,966.768 1023.424,966.768 
							1053.838,966.768 1124.084,966.768 1124.084,826.256 						"/>
						<rect x="963.64" y="715.316" style="fill:#86A1B3;" width="72.024" height="85.63"/>
					</g>
					<g>
						<rect x="342.665" y="767.785" style="fill:#86A1B3;" width="138.826" height="198.983"/>
						<rect x="354.44" y="745.804" style="fill:#86A1B3;" width="115.276" height="26.308"/>
						<g>
							<rect x="408.448" y="714.896" style="fill:#86A1B3;" width="44.048" height="20.127"/>
							<rect x="371.658" y="714.896" style="fill:#86A1B3;" width="18.44" height="20.127"/>
						</g>
						<polygon style="fill:#86A1B3;" points="459.906,747.878 364.252,747.878 366.58,732.465 457.576,732.465 						"/>
					</g>
					<g>
						<rect x="1982.196" y="819.384" style="fill:#86A1B3;" width="80.869" height="115.911"/>
						<rect x="1989.055" y="806.58" style="fill:#86A1B3;" width="67.15" height="15.325"/>
						<g>
							<rect x="2020.516" y="788.576" style="fill:#86A1B3;" width="25.659" height="11.725"/>
							<rect x="1999.085" y="788.576" style="fill:#86A1B3;" width="10.742" height="11.725"/>
						</g>
						<polygon style="fill:#86A1B3;" points="2050.491,807.789 1994.771,807.789 1996.126,798.81 2049.134,798.81 						"/>
					</g>
					<g>
						<path style="fill:#86A1B3;" d="M1908.599,772.825v28.968h-109.565v-28.968h-56.672c0,25.263,0,171.489,0,193.943h222.911
							c0-22.468,0-168.685,0-193.943H1908.599z"/>
					</g>
					<g>
						<path style="fill:#86A1B3;" d="M759.504,813.813v152.954H628.256V780.891h35.125
							C737.595,806.31,702.949,794.439,759.504,813.813z"/>
					</g>
					<rect x="144.345" y="909.29" style="fill:#86A1B3;" width="2083.019" height="223.578"/>
					<rect x="499.57" y="775.952" style="fill:#86A1B3;" width="99.391" height="160.985"/>
					<rect x="517.943" y="755.304" style="fill:#86A1B3;" width="59.494" height="71.394"/>
					<rect x="1635.216" y="814.798" style="fill:#86A1B3;" width="70.343" height="107.091"/>
					<rect x="1469.331" y="857.845" style="fill:#86A1B3;" width="49.345" height="65.094"/>
					<rect x="1103.964" y="886.192" style="fill:#86A1B3;" width="54.595" height="34.647"/>
					<rect x="588.462" y="842.096" style="fill:#86A1B3;" width="49.345" height="88.192"/>
					<rect x="278.74" y="868.344" style="fill:#86A1B3;" width="88.192" height="53.545"/>
					<rect x="1575.371" y="847.346" style="fill:#86A1B3;" width="73.493" height="85.042"/>
					<rect x="1948.087" y="857.845" style="fill:#86A1B3;" width="52.495" height="72.443"/>
					<rect x="743.148" y="887.942" style="fill:#86A1B3;" width="62.994" height="47.596"/>
					<rect x="2056.227" y="892.142" style="fill:#86A1B3;" width="41.996" height="32.197"/>
				</g>
				<g>
					<g>
						<path style="fill:#002843;" d="M2141.336,675.975V637.87c0-4.173-4.618-7.354-11.639-9.568v-30.34
							c0-17.763-59.859-17.763-59.859,0v30.34c-7.018,2.214-11.636,5.396-11.636,9.568v38.105c-8.121,1.633-13.306,3.9-13.306,6.788
							v445.635h109.746V682.763C2154.642,679.875,2149.449,677.608,2141.336,675.975z"/>
					</g>
					<g>
						<rect x="231.611" y="631.018" style="fill:#002843;" width="102.167" height="496.897"/>
					</g>
					<g>
						<rect x="830.132" y="499.553" style="fill:#002843;" width="76.737" height="26.222"/>
						<polygon style="fill:#002843;" points="959.204,1107.95 777.794,1107.95 813.204,520.533 923.794,520.533 						"/>
						<polygon style="fill:#002843;" points="880,511.581 857.002,511.581 862.652,448.501 874.35,448.501 						"/>
						<polygon style="fill:#002843;" points="870.765,448.3 869.827,406.484 867.172,406.484 866.236,448.3 						"/>
						<path style="fill:#002843;" d="M875.342,452.431l-0.459-3.66c-0.113-0.904-0.841-1.582-1.701-1.582h-9.367
							c-0.857,0-1.585,0.679-1.701,1.582l-0.458,3.66H875.342z"/>
					</g>
					<g>
						<rect x="443.585" y="801.839" style="fill:#002843;" width="295.956" height="339.154"/>
						<g>
							<rect x="642.318" y="756.971" style="fill:#002843;" width="79.089" height="51.757"/>
							<rect x="461.718" y="756.971" style="fill:#002843;" width="130.854" height="51.757"/>
						</g>
					</g>
					<g>
						<polygon style="fill:#002843;" points="1684.04,911.384 1684.04,867.05 1537.264,867.05 1537.264,1116.268 1639.692,1116.268 
							1684.04,1116.268 1786.468,1116.268 1786.468,911.384 						"/>
						<rect x="1552.521" y="749.62" style="fill:#002843;" width="105.019" height="124.859"/>
					</g>
					<g>
						<polygon style="fill:#002843;" points="1091.446,863.919 1237.415,885.277 1237.415,804.117 1091.446,817.382 						"/>
						<polygon style="fill:#002843;" points="1221.391,774.222 1221.391,808.926 1107.456,817.73 1107.456,787.493 						"/>
						<polygon style="fill:#002843;" points="1265.188,878.252 1265.188,1098.136 1063.695,1098.136 1063.695,846.247 						"/>
					</g>
					<g>
						<polygon style="fill:#002843;" points="1899.338,1101.869 1899.338,1031.186 1872.445,1018.978 1865.59,1022.444 
							1865.59,991.479 1833.984,970.375 1805.626,991.479 1805.626,1101.869 						"/>
					</g>
					<rect x="144.345" y="1091.253" style="fill:#002843;" width="2083.019" height="62.857"/>
					<rect x="329.661" y="972.207" style="fill:#002843;" width="119.046" height="135.237"/>
					<rect x="1311.555" y="929.351" style="fill:#002843;" width="114.284" height="169.522"/>
					<rect x="1392.507" y="882.685" style="fill:#002843;" width="13.333" height="60.952"/>
					<rect x="1447.744" y="1011.254" style="fill:#002843;" width="60.952" height="93.333"/>
					<rect x="1494.41" y="1044.587" style="fill:#002843;" width="54.285" height="66.666"/>
					<rect x="1926.786" y="970.303" style="fill:#002843;" width="119.047" height="135.236"/>
					<rect x="1944.048" y="916.256" style="fill:#002843;" width="28.213" height="66.785"/>
					<rect x="1897.739" y="1052.206" style="fill:#002843;" width="32.857" height="52.857"/>
					<rect x="1778.217" y="1077.21" style="fill:#002843;" width="33.689" height="26.424"/>
					<rect x="989.416" y="964.827" style="fill:#002843;" width="57.142" height="139.998"/>
					<rect x="950.845" y="1036.969" style="fill:#002843;" width="52.857" height="64.285"/>
					<rect x="727.276" y="1007.683" style="fill:#002843;" width="58.571" height="109.285"/>
					<rect x="1258.698" y="1022.683" style="fill:#002843;" width="60.952" height="79.046"/>
				</g>
			</g>
			<defs>
				
					<filter id="Adobe_OpacityMaskFilter" filterUnits="userSpaceOnUse" x="144.345" y="1141.236" width="2083.019" height="847.474">
					<feColorMatrix  type="matrix" values="1 0 0 0 0  0 1 0 0 0  0 0 1 0 0  0 0 0 1 0"/>
				</filter>
			</defs>
			
				<mask maskUnits="userSpaceOnUse" x="144.345" y="1141.236" width="2083.019" height="847.474" id="SVGID_00000060726515374636067220000014952366855199986334_">
				<g style="filter:url(#Adobe_OpacityMaskFilter);">
					
						<linearGradient id="SVGID_00000007411845266226016890000006374386502983326632_" gradientUnits="userSpaceOnUse" x1="1205.5302" y1="1159.9341" x2="1205.5302" y2="1700.2155">
						<stop  offset="0" style="stop-color:#EBEBEB"/>
						<stop  offset="0.1221" style="stop-color:#BEBEBE"/>
						<stop  offset="0.2951" style="stop-color:#858585"/>
						<stop  offset="0.463" style="stop-color:#555555"/>
						<stop  offset="0.6214" style="stop-color:#303030"/>
						<stop  offset="0.7681" style="stop-color:#161616"/>
						<stop  offset="0.8987" style="stop-color:#060606"/>
						<stop  offset="1" style="stop-color:#000000"/>
					</linearGradient>
					
						<rect x="68.264" y="1100.907" style="fill:url(#SVGID_00000007411845266226016890000006374386502983326632_);" width="2274.531" height="960.183"/>
				</g>
			</mask>
			<g style="mask:url(#SVGID_00000060726515374636067220000014952366855199986334_);">
				<g>
					<g>
						<rect x="200.268" y="1476.751" style="fill:#D5DFE6;" width="136.107" height="413.783"/>
						<rect x="210.838" y="1868.163" style="fill:#D5DFE6;" width="58.107" height="46.808"/>
						<rect x="306.465" y="1868.163" style="fill:#D5DFE6;" width="20.045" height="46.808"/>
					</g>
					<g>
						<polygon style="fill:#D5DFE6;" points="846.355,1476.751 846.355,1766.583 802.044,1790.879 734.574,1765.13 
							734.574,1476.751 						"/>
					</g>
					<g>
						<polygon style="fill:#D5DFE6;" points="565.746,1872.062 565.746,1481.5 469.973,1481.5 470.23,1492.631 470.32,1496.77 
							470.619,1510.065 470.709,1514.204 471.001,1527.483 471.098,1531.623 471.392,1544.918 471.482,1549.06 471.776,1562.336 
							471.869,1566.494 472.183,1579.772 472.276,1583.911 472.568,1597.208 472.658,1601.346 472.954,1614.625 473.044,1618.767 
							473.339,1632.065 473.431,1636.201 473.725,1649.499 473.818,1653.635 474.112,1666.915 474.225,1671.054 474.517,1684.353 
							474.607,1688.488 474.904,1701.768 474.994,1705.906 475.292,1719.204 475.383,1723.343 475.674,1736.641 475.767,1740.778 
							476.063,1754.061 476.174,1758.202 476.466,1771.494 476.556,1775.63 476.852,1788.932 476.945,1793.071 477.239,1806.35 
							477.327,1810.489 477.628,1823.785 477.715,1827.924 478.012,1841.203 478.105,1845.338 478.41,1858.64 478.507,1862.778 
							478.711,1872.062 						"/>
						<polygon style="fill:#D5DFE6;" points="554.099,1867.373 493.865,1867.716 496.168,1895.882 554.099,1895.882 						"/>
					</g>
					<g>
						<polygon style="fill:#D5DFE6;" points="2066.806,1826.306 2017.039,1813.665 2017.039,1875.399 2066.806,1855.745 						"/>
						<polygon style="fill:#D5DFE6;" points="2084.74,1476.751 2084.74,1785.178 1999.105,1769.523 1999.105,1476.751 						"/>
						<polygon style="fill:#D5DFE6;" points="2075.391,1778.487 2008.456,1767.914 2008.456,1814.215 2075.391,1832.516 						"/>
					</g>
					<g>
						<polygon style="fill:#D5DFE6;" points="496.913,1601.82 496.913,1498.087 363,1498.087 363,1601.82 363.317,1603.758 
							364.832,1613.03 366.378,1622.546 366.603,1623.931 369.448,1641.329 369.667,1642.713 371.573,1654.334 488.326,1654.334 
							490.229,1642.713 490.45,1641.329 493.296,1623.931 493.519,1622.546 495.072,1613.109 496.601,1603.758 						"/>
						<rect x="380.544" y="1652.548" style="fill:#D5DFE6;" width="98.818" height="39.099"/>
					</g>
					<g>
						<polygon style="fill:#D5DFE6;" points="1003.364,1844.149 1003.364,1874.48 1035.077,1902.654 1035.077,1833.544 						"/>
						<polygon style="fill:#D5DFE6;" points="1042.412,1807.041 1042.412,1837.381 968.467,1865.548 968.467,1827.845 						"/>
						<path style="fill:#D5DFE6;" d="M1054.342,1810.337v-302.194h-97.801v330.374
							C1003.723,1824.91,1023.59,1819.204,1054.342,1810.337z"/>
					</g>
					<g>
						<path style="fill:#D5DFE6;" d="M1574.293,1867.501v30.577l-11.3,16.189c-7.502,13.284-22.38,42.513-28.323,74.444
							c-8.607-37.207-21.326-62.632-28.118-74.444l-11.505-16.189v-30.577h-10.071v-346.717h99.386v346.717H1574.293z"/>
					</g>
					<g>
						<polygon style="fill:#D5DFE6;" points="1423.132,1476.751 1422.514,1502.032 1422.377,1507.49 1420.794,1572.328 
							1420.672,1577.786 1419.086,1642.623 1418.95,1648.086 1417.368,1712.923 1417.244,1718.382 1415.58,1786.552 
							1350.659,1786.552 1348.997,1718.382 1348.874,1712.923 1347.288,1648.086 1347.152,1642.623 1345.566,1577.786 
							1345.446,1572.328 1343.861,1507.49 1343.726,1502.032 1343.109,1476.751 						"/>
					</g>
					<g>
						<rect x="539.112" y="1492.509" style="fill:#D5DFE6;" width="136.168" height="236.822"/>
						<rect x="539.112" y="1726.4" style="fill:#D5DFE6;" width="113.725" height="56.079"/>
						<rect x="539.112" y="1779.558" style="fill:#D5DFE6;" width="92.46" height="25.369"/>
					</g>
					<g>
						<rect x="1645.198" y="1505.15" style="fill:#D5DFE6;" width="99.661" height="173.33"/>
						<rect x="1645.198" y="1676.334" style="fill:#D5DFE6;" width="83.236" height="41.044"/>
						<rect x="1645.198" y="1715.241" style="fill:#D5DFE6;" width="67.672" height="18.567"/>
					</g>
					<g>
						<polygon style="fill:#D5DFE6;" points="1120.981,1731.978 1120.981,1511.47 1264.312,1511.47 1264.312,1573.146 
							1273.367,1573.146 1273.367,1681.825 1208.752,1681.825 						"/>
					</g>
					<g>
						<polygon style="fill:#D5DFE6;" points="1961.557,1717.792 1961.557,1511.47 1795.663,1511.47 1795.663,1669.923 
							1830.961,1680.105 1841.421,1683.135 1876.154,1693.15 1886.642,1696.171 						"/>
						<polygon style="fill:#D5DFE6;" points="1948.137,1704.263 1948.137,1729.613 1809.078,1686.542 1809.078,1665.877 						"/>
					</g>
					<g>
						<path style="fill:#D5DFE6;" d="M938.313,1621.016v44.652l-34.927,19.287l-35.576-8.119V1637.6l-29.687-9.483V1505.15
							c14.618,0,131.192,0,145.353,0v106.73L938.313,1621.016z"/>
					</g>
					<rect x="144.345" y="1267.088" style="fill:#D5DFE6;" width="2083.019" height="264.181"/>
					<rect x="325.908" y="1507.3" style="fill:#D5DFE6;" width="69.525" height="68.472"/>
					<rect x="1042.231" y="1499.926" style="fill:#D5DFE6;" width="88.487" height="128.517"/>
					<rect x="1242.38" y="1510.46" style="fill:#D5DFE6;" width="128.517" height="44.244"/>
					<rect x="1414.087" y="1513.62" style="fill:#D5DFE6;" width="84.273" height="115.876"/>
					<rect x="1553.137" y="1522.047" style="fill:#D5DFE6;" width="112.715" height="47.404"/>
					<rect x="1937.634" y="1504.139" style="fill:#D5DFE6;" width="87.434" height="103.235"/>
					<rect x="639.475" y="1499.223" style="fill:#D5DFE6;" width="136.242" height="68.823"/>
					<rect x="1723.791" y="1514.674" style="fill:#D5DFE6;" width="101.128" height="29.495"/>
				</g>
				<g>
					<g>
						<rect x="1696.609" y="1328.579" style="fill:#86A1B3;" width="59.555" height="221.283"/>
						<rect x="1699.763" y="1548.072" style="fill:#86A1B3;" width="30.807" height="11.219"/>
						<rect x="1737.661" y="1548.072" style="fill:#86A1B3;" width="15.351" height="11.219"/>
					</g>
					<g>
						<polygon style="fill:#86A1B3;" points="843.663,1779.171 843.663,1821.386 824.87,1826.445 824.87,1856.599 785.87,1861.663 
							785.87,1779.171 						"/>
						<polygon style="fill:#86A1B3;" points="926.908,1754.994 926.908,1328.579 785.877,1328.579 785.877,1807.406 
							892.376,1800.823 892.376,1761.577 904.618,1759.238 						"/>
					</g>
					<g>
						<polygon style="fill:#86A1B3;" points="1483.138,1328.579 1370.793,1328.579 1370.793,1615.222 1389.961,1635.863 
							1483.138,1615.222 						"/>
						<polygon style="fill:#86A1B3;" points="1410.126,1627.613 1410.126,1666.413 1472.452,1646.246 1472.452,1610.196 						"/>
					</g>
					<g>
						<path style="fill:#86A1B3;" d="M1322.232,1709.403c0,10.946,0,21.775,0,32.412l-37.582,52.664l-35.741-52.664
							c0-8.944,0-19.874,0-32.412h-9.626v-380.824h92.574v380.824H1322.232z"/>
					</g>
					<g>
						<path style="fill:#86A1B3;" d="M278.677,1623.093v76.18l-33.556,59.421l-39.102-59.421v-370.694c11.228,0,75.19,0,87.68,0
							v261.311L278.677,1623.093z"/>
					</g>
					<g>
						<polygon style="fill:#86A1B3;" points="2163.277,1696.306 2163.277,1753.065 2090.856,1767.954 2090.856,1696.306 
							2078.812,1696.306 2078.812,1328.579 2175.323,1328.579 2175.323,1696.306 						"/>
					</g>
					<g>
						<polygon style="fill:#86A1B3;" points="1221.797,1353.859 1221.797,1498.364 1198.626,1527.875 1198.626,1609 1151.773,1609 
							1151.773,1540.784 1149.706,1538.159 1147.925,1535.889 1140.672,1526.652 1140.672,1353.859 						"/>
					</g>
					<g>
						<rect x="1506.415" y="1328.579" style="fill:#86A1B3;" width="90.894" height="257.005"/>
						<rect x="1515.689" y="1582.699" style="fill:#86A1B3;" width="72.349" height="42.111"/>
						<rect x="1522.157" y="1622.937" style="fill:#86A1B3;" width="59.408" height="91.156"/>
						<rect x="1549.803" y="1703.282" style="fill:#86A1B3;" width="4.12" height="116.319"/>
					</g>
					<g>
						<polygon style="fill:#86A1B3;" points="1053.838,1469.091 1053.838,1499.495 953.177,1499.495 953.177,1328.579 
							1023.424,1328.579 1053.838,1328.579 1124.084,1328.579 1124.084,1469.091 						"/>
						<rect x="963.64" y="1494.401" style="fill:#86A1B3;" width="72.024" height="85.63"/>
					</g>
					<g>
						<rect x="342.665" y="1328.579" style="fill:#86A1B3;" width="138.826" height="198.983"/>
						<rect x="354.44" y="1523.235" style="fill:#86A1B3;" width="115.276" height="26.307"/>
						<g>
							<rect x="408.448" y="1560.323" style="fill:#86A1B3;" width="44.048" height="20.128"/>
							<rect x="371.658" y="1560.323" style="fill:#86A1B3;" width="18.44" height="20.128"/>
						</g>
						<polygon style="fill:#86A1B3;" points="459.906,1547.469 364.252,1547.469 366.58,1562.881 457.576,1562.881 						"/>
					</g>
					<g>
						<rect x="1982.196" y="1360.052" style="fill:#86A1B3;" width="80.869" height="115.911"/>
						<rect x="1989.055" y="1473.441" style="fill:#86A1B3;" width="67.15" height="15.325"/>
						<g>
							<rect x="2020.516" y="1495.046" style="fill:#86A1B3;" width="25.659" height="11.725"/>
							<rect x="1999.085" y="1495.046" style="fill:#86A1B3;" width="10.742" height="11.725"/>
						</g>
						<polygon style="fill:#86A1B3;" points="2050.491,1487.558 1994.771,1487.558 1996.126,1496.536 2049.134,1496.536 						"/>
					</g>
					<g>
						<path style="fill:#86A1B3;" d="M1908.599,1522.521v-28.968h-109.565v28.968h-56.672c0-25.263,0-171.489,0-193.943h222.911
							c0,22.467,0,168.685,0,193.943H1908.599z"/>
					</g>
					<g>
						<path style="fill:#86A1B3;" d="M759.504,1481.533v-152.954H628.256v185.876h35.125
							C737.595,1489.037,702.949,1500.908,759.504,1481.533z"/>
					</g>
					<rect x="144.345" y="1162.479" style="fill:#86A1B3;" width="2083.019" height="223.578"/>
					<rect x="499.57" y="1358.409" style="fill:#86A1B3;" width="99.391" height="160.986"/>
					<rect x="517.943" y="1468.649" style="fill:#86A1B3;" width="59.494" height="71.393"/>
					<rect x="1635.216" y="1373.458" style="fill:#86A1B3;" width="70.343" height="107.09"/>
					<rect x="1469.331" y="1372.408" style="fill:#86A1B3;" width="49.345" height="65.093"/>
					<rect x="1103.964" y="1374.508" style="fill:#86A1B3;" width="54.595" height="34.647"/>
					<rect x="588.462" y="1365.058" style="fill:#86A1B3;" width="49.345" height="88.192"/>
					<rect x="278.74" y="1373.458" style="fill:#86A1B3;" width="88.192" height="53.545"/>
					<rect x="1575.371" y="1362.959" style="fill:#86A1B3;" width="73.493" height="85.042"/>
					<rect x="1948.087" y="1365.058" style="fill:#86A1B3;" width="52.495" height="72.443"/>
					<rect x="743.148" y="1359.809" style="fill:#86A1B3;" width="62.994" height="47.596"/>
					<rect x="2056.227" y="1371.008" style="fill:#86A1B3;" width="41.996" height="32.197"/>
				</g>
				<g>
					<g>
						<path style="fill:#002843;" d="M2141.336,1619.371v38.105c0,4.173-4.618,7.354-11.639,9.569v30.339
							c0,17.763-59.859,17.763-59.859,0v-30.339c-7.018-2.215-11.636-5.396-11.636-9.569v-38.105
							c-8.121-1.633-13.306-3.9-13.306-6.788v-445.635h109.746v445.635C2154.642,1615.471,2149.449,1617.739,2141.336,1619.371z"/>
					</g>
					<g>
						<rect x="231.611" y="1167.432" style="fill:#002843;" width="102.167" height="496.897"/>
					</g>
					<g>
						<rect x="830.132" y="1769.571" style="fill:#002843;" width="76.737" height="26.223"/>
						<polygon style="fill:#002843;" points="959.204,1187.396 777.794,1187.396 813.204,1774.813 923.794,1774.813 						"/>
						<polygon style="fill:#002843;" points="880,1783.766 857.002,1783.766 862.652,1846.845 874.35,1846.845 						"/>
						<polygon style="fill:#002843;" points="870.765,1847.046 869.827,1888.863 867.172,1888.863 866.236,1847.046 						"/>
						<path style="fill:#002843;" d="M875.342,1842.915l-0.459,3.66c-0.113,0.904-0.841,1.583-1.701,1.583h-9.367
							c-0.857,0-1.585-0.679-1.701-1.583l-0.458-3.66H875.342z"/>
					</g>
					<g>
						<rect x="443.585" y="1154.353" style="fill:#002843;" width="295.956" height="339.154"/>
						<g>
							<rect x="642.318" y="1486.618" style="fill:#002843;" width="79.089" height="51.757"/>
							<rect x="461.718" y="1486.618" style="fill:#002843;" width="130.854" height="51.757"/>
						</g>
					</g>
					<g>
						<polygon style="fill:#002843;" points="1684.04,1383.962 1684.04,1428.296 1537.264,1428.296 1537.264,1179.079 
							1639.692,1179.079 1684.04,1179.079 1786.468,1179.079 1786.468,1383.962 						"/>
						<rect x="1552.521" y="1420.867" style="fill:#002843;" width="105.019" height="124.859"/>
					</g>
					<g>
						<polygon style="fill:#002843;" points="1091.446,1431.427 1237.415,1410.069 1237.415,1491.229 1091.446,1477.965 						"/>
						<polygon style="fill:#002843;" points="1221.391,1521.125 1221.391,1486.421 1107.456,1477.616 1107.456,1507.854 						"/>
						<polygon style="fill:#002843;" points="1265.188,1417.095 1265.188,1197.211 1063.695,1197.211 1063.695,1449.099 						"/>
					</g>
					<g>
						<polygon style="fill:#002843;" points="1899.338,1193.477 1899.338,1264.161 1872.445,1276.368 1865.59,1272.902 
							1865.59,1303.868 1833.984,1324.972 1805.626,1303.868 1805.626,1193.477 						"/>
					</g>
					<rect x="144.345" y="1141.236" style="fill:#002843;" width="2083.019" height="62.857"/>
					<rect x="329.661" y="1187.902" style="fill:#002843;" width="119.046" height="135.237"/>
					<rect x="1311.555" y="1196.474" style="fill:#002843;" width="114.284" height="169.522"/>
					<rect x="1392.507" y="1351.71" style="fill:#002843;" width="13.333" height="60.952"/>
					<rect x="1447.744" y="1190.76" style="fill:#002843;" width="60.952" height="93.333"/>
					<rect x="1494.41" y="1184.093" style="fill:#002843;" width="54.285" height="66.666"/>
					<rect x="1926.786" y="1189.808" style="fill:#002843;" width="119.047" height="135.236"/>
					<rect x="1944.048" y="1312.306" style="fill:#002843;" width="28.213" height="66.785"/>
					<rect x="1897.739" y="1190.283" style="fill:#002843;" width="32.857" height="52.857"/>
					<rect x="1778.217" y="1191.712" style="fill:#002843;" width="33.689" height="26.424"/>
					<rect x="989.416" y="1190.522" style="fill:#002843;" width="57.142" height="139.998"/>
					<rect x="950.845" y="1194.093" style="fill:#002843;" width="52.857" height="64.285"/>
					<rect x="727.276" y="1178.379" style="fill:#002843;" width="58.571" height="109.285"/>
					<rect x="1258.698" y="1193.617" style="fill:#002843;" width="60.952" height="79.046"/>
				</g>
			</g>
		</g>
	</g>
</g>
</svg>
