<?xml version="1.0" encoding="UTF-8"?>
<svg width="611px" height="155px" viewBox="0 0 611 155" version="1.1" xmlns="http://www.w3.org/2000/svg" xmlns:xlink="http://www.w3.org/1999/xlink">
    <title>GBM Grupo Bursátil Mexicano</title>
    <g id="Page-1" stroke="none" stroke-width="1" fill="none" fill-rule="evenodd">
        <g id="GBM" fill="#040006" fill-rule="nonzero">
            <path d="M371.21,83.65 C367.692171,80.6528508 363.723343,78.2297054 359.45,76.47 C355.306544,74.6423543 350.891175,73.5072631 346.38,73.11 C351.159713,72.3679823 355.650785,70.3504544 359.38,67.27 C363.299601,64.1905222 366.315612,60.1104434 368.11,55.46 C369.977285,50.4154815 370.892767,45.0683891 370.81,39.69 C370.81,26.9433333 366.41,17.5333333 357.61,11.46 C348.81,5.38666667 337.103333,2.36666667 322.49,2.39972707 L209.36,2.39972707 L209.36,152.4 L328.27,152.4 C340.223333,152.4 350.223333,150.783333 358.27,147.55 C366.316667,144.316667 372.183333,139.54 375.87,133.22 C379.57,126.906667 381.42,119.333333 381.42,110.5 C381.483196,105.202579 380.599305,99.9364864 378.81,94.95 C377.294385,90.5890873 374.692529,86.6863029 371.25,83.61 M244.77,30.61 L311,30.61 C316.28,30.61 320.416667,31.17 323.41,32.29 C326.325762,33.3484402 328.827288,35.3104217 330.55,37.89 C332.312512,40.4725942 333.240892,43.5334544 333.210747,46.66 C333.210747,52.26 331.7,56.4133333 328.68,59.12 C325.66,61.8266667 320.603333,63.18 313.51,63.18 L244.73,63.18 L244.77,30.61 Z M340.77,117.46 C338.550011,119.867957 335.68171,121.583381 332.51,122.4 C327.982806,123.548286 323.318837,124.066504 318.65,123.94 L244.73,123.94 L244.73,91.12 L319.4,91.12 C327.68,91.12 333.81,92.4533333 337.79,95.12 C341.77,97.7866667 343.77,101.94 343.79,107.58 C343.79,111.926667 342.79,115.24 340.79,117.52" id="Shape"></path>
            <polygon id="Path" points="564.33 2.36 511.59 116.69 459.97 2.36 413.3 2.36 413.3 152.44 447.65 152.44 447.65 52.29 493.2 152.44 528.76 152.44 575.62 52.29 575.62 152.44 610.15 152.44 610.15 2.36"></polygon>
            <path d="M170,64.94 L83,64.94 L83,93.27 L139.14,93.27 C138.351334,97.4432078 136.917483,101.468114 134.89,105.2 C131.096667,111.92 125.063333,117.006667 116.79,120.46 C109.37,123.55 100.01,125.13 88.74,125.46 C77.89,125.27 68.55,123.62 60.74,120.46 C52.48,117.086667 46.4366667,112.066667 42.61,105.4 C38.7833333,98.7333333 36.87,89.4366667 36.87,77.51 C36.87,65.63 38.7666667,56.3266667 42.56,49.6 C46.3533333,42.8733333 52.39,37.7866667 60.67,34.34 C68.09,31.25 77.45,29.67 88.72,29.34 C99.5666667,29.5266667 108.883333,31.1933333 116.67,34.34 C121.932436,36.3761961 126.676743,39.556146 130.56,43.65 L172,43.65 C171.00377,40.9088672 169.827886,38.2364038 168.48,35.65 C162.48,24.23 152.756667,15.44 139.31,9.28 C125.863333,3.12 110.23,0.0266666667 92.41,0 C91.16,0 89.94,0 88.72,0 C71.02,0.28 55.62,3.15666667 42.52,8.63 C28.7266667,14.4166667 18.1933333,22.8933333 10.92,34.06 C3.64666667,45.2266667 0.00666666667,59.71 0,77.51 C0,93.8833333 3,107.776667 9,119.19 C15,130.603333 24.7233333,139.393333 38.17,145.56 C51.6166667,151.72 67.2266667,154.8 85,154.8 C86.25,154.8 87.47,154.8 88.69,154.8 C106.39,154.52 121.79,151.643333 134.89,146.17 C148.67,140.376667 159.203333,131.9 166.49,120.74 C173.776667,109.58 177.416667,95.0966667 177.410039,77.29 C177.413337,73.165218 177.203055,69.0430308 176.78,64.94 L170,64.94 Z" id="Path"></path>
        </g>
    </g>
</svg>