<?xml version="1.0" encoding="UTF-8" standalone="no"?>
<svg width="259" height="90" viewBox="0 0 259 90" fill="none" xmlns="http://www.w3.org/2000/svg">
<path d="M101.779 21.3914H103.994V28.3287H114.354V21.3914H116.537V38.95H114.354V30.35H103.994V38.95H101.779V21.3914Z" fill="#032A57"/>
<path d="M136.503 32.1732L132.627 24.3879L128.781 32.1732H136.503ZM131.715 21.3918H133.539L142.236 38.9505H139.859L137.48 34.2265H127.772L125.459 38.9505H123.113L131.715 21.3918Z" fill="#032A57"/>
<path d="M148.814 21.3914H149.954L161.357 34.5194V21.3914H163.54V38.95H162.432L150.997 25.822V38.95H148.814V21.3914Z" fill="#032A57"/>
<path d="M172.298 34.4213C174.806 36.376 177.575 37.3866 180.149 37.3866C183.505 37.3866 185.622 35.7893 185.622 33.704C185.622 32.108 184.254 30.8053 181.518 30.5773C178.519 30.3494 176.142 30.3173 174.285 29.4707C172.657 28.688 171.777 27.4173 171.777 25.8533C171.777 23.1493 174.415 21 178.585 21C181.55 21 184.45 22.0093 186.99 23.8667L185.719 25.6906C183.537 23.932 181.126 23.0519 178.618 23.0519C175.849 23.0519 174.057 24.2907 174.057 25.756C174.057 26.408 174.35 26.896 174.905 27.32C176.402 28.46 178.911 28.2 182.135 28.5587C185.818 28.9813 187.935 31.1 187.935 33.7706C187.935 36.8 185.133 39.4067 180.182 39.4067C176.729 39.4067 173.763 38.428 171.027 36.312L172.298 34.4213Z" fill="#032A57"/>
<path d="M206.188 32.1732L202.311 24.3879L198.467 32.1732H206.188ZM201.399 21.3918H203.223L211.921 38.9505H209.543L207.165 34.2265H197.456L195.144 38.9505H192.799L201.399 21.3918Z" fill="#032A57"/>
<path d="M228.338 29.2092C230.553 29.2092 231.694 28.1999 231.694 26.3426C231.694 24.5186 230.553 23.4106 228.436 23.4106H220.585V29.2092H228.338ZM218.402 21.3918H228.469C231.921 21.3918 233.974 23.2159 233.974 26.2772C233.974 28.7532 232.378 30.7732 229.805 31.2292L234.202 38.9505H231.793L227.393 31.2612H220.585V38.9505H218.402V21.3918Z" fill="#032A57"/>
<path d="M244.038 23.4103V36.9303H249.381C253.909 36.9303 256.351 34.1289 256.351 30.1863C256.351 26.2449 253.746 23.4103 249.381 23.4103H244.038ZM258.599 30.2196C258.599 35.2676 255.245 38.9502 249.381 38.9502H241.855V21.3916H249.381C255.082 21.3916 258.599 25.137 258.599 30.2196" fill="#032A57"/>
<path d="M112.821 62.2304H109.011V60.6238H114.559V64.8238C113.211 67.1571 110.981 68.4264 108.233 68.4264C104.059 68.4264 101 65.3678 101 61.1158C101 56.8651 104.059 53.7798 108.233 53.7798C110.825 53.7798 113.029 54.9718 114.351 57.0451L112.9 58.0824C112.017 56.3971 110.255 55.4131 108.233 55.4131C105.121 55.4131 102.788 57.7958 102.788 61.1158C102.788 64.4331 105.121 66.7931 108.233 66.7931C110.177 66.7931 111.707 65.9638 112.821 64.2784V62.2304Z" fill="#032A57"/>
<path d="M119.955 54.0894H121.692V66.456H130.818V68.064H119.955V54.0894Z" fill="#032A57"/>
<path d="M145.816 61.1153C145.816 57.7966 143.509 55.4127 140.372 55.4127C137.261 55.4127 134.928 57.7966 134.928 61.1153C134.928 64.4339 137.261 66.7926 140.372 66.7926C143.509 66.7926 145.816 64.4086 145.816 61.1153ZM133.139 61.1153C133.139 56.8646 136.199 53.7793 140.372 53.7793C144.547 53.7793 147.631 56.8646 147.631 61.1153C147.631 65.3673 144.547 68.4259 140.372 68.4259C136.199 68.4259 133.139 65.3673 133.139 61.1153Z" fill="#032A57"/>
<path d="M161.556 66.4565C163.19 66.4565 164.123 65.4192 164.123 63.8378C164.123 62.2818 163.19 61.2191 161.556 61.2191H154.246V66.4565H161.556ZM160.935 59.6125C162.412 59.6125 163.19 58.9124 163.19 57.6671C163.19 56.3458 162.438 55.6978 160.935 55.6978H154.246V59.6125H160.935ZM152.51 54.0898H160.779C163.579 54.0898 164.952 55.3085 164.952 57.5645C164.952 58.6778 164.512 59.5858 163.682 60.1298C165.186 60.9858 165.938 62.2565 165.938 63.8632C165.938 66.4045 164.175 68.0631 161.219 68.0631H152.51V54.0898Z" fill="#032A57"/>
<path d="M179.811 62.6704L176.726 56.4758L173.667 62.6704H179.811ZM176 54.0891H177.451L184.375 68.0638H182.482L180.59 64.3037H172.864L171.023 68.0638H169.156L176 54.0891Z" fill="#032A57"/>
<path d="M188.318 54.0894H190.056V66.456H199.181V68.064H188.318V54.0894Z" fill="#032A57"/>
<path d="M221.375 60.3115C223.139 60.3115 224.046 59.5089 224.046 58.0302C224.046 56.5796 223.139 55.6969 221.454 55.6969H215.205V60.3115H221.375ZM213.469 54.0889H221.479C224.229 54.0889 225.861 55.5422 225.861 57.8755C225.861 60.2089 224.331 61.9449 221.714 61.9449H215.205V68.0635H213.469V54.0889Z" fill="#032A57"/>
<path d="M230.559 54.0894H232.296V66.456H241.42V68.064H230.559V54.0894Z" fill="#032A57"/>
<path d="M257.886 64.6414C256.59 67.0787 254.282 68.4267 251.455 68.4267C247.282 68.4267 244.225 65.3667 244.225 61.1147C244.225 56.864 247.282 53.78 251.455 53.78C254.049 53.78 256.253 54.9707 257.574 57.0454L256.123 58.0827C255.241 56.3974 253.479 55.412 251.455 55.412C248.346 55.412 246.013 57.796 246.013 61.1147C246.013 64.4334 248.346 66.7921 251.455 66.7921C253.634 66.7921 255.371 65.704 256.485 63.6041L257.886 64.6414Z" fill="#032A57"/>
<path d="M71.5733 67.7294C64.536 67.7267 57.4987 67.7331 50.4627 67.7266C50.4665 64.56 50.4614 61.3946 50.4654 58.228C53.6307 58.2318 56.796 58.228 59.9627 58.2293C59.9613 49.4373 59.96 40.6453 59.9627 31.8533C56.7947 31.852 53.6267 31.8307 50.4587 31.8609C50.4738 35.7263 50.4614 39.5889 50.4625 43.4542C46.5931 43.4542 42.7238 43.4556 38.8545 43.4542V31.8475C35.6891 31.8475 32.5224 31.8462 29.3571 31.8475C29.3584 40.6409 29.3545 49.4342 29.3598 58.2302C32.5211 58.2302 35.6825 58.2227 38.8451 58.2329C38.8704 54.3609 38.8438 50.4902 38.8572 46.6182C42.7266 46.6258 46.5959 46.6144 50.4652 46.622C50.4577 50.4913 50.4678 54.3593 50.4614 58.2286C46.5908 58.2249 42.7228 58.2287 38.8548 58.2249C38.8548 61.3929 38.8548 64.5595 38.8548 67.7262H17.6948V22.2595H38.8548V31.8449C42.7254 31.8462 46.5948 31.8449 50.4654 31.8462C50.4579 28.6529 50.4692 25.4582 50.4616 22.2635C57.4977 22.256 64.5363 22.2622 71.5737 22.2597L71.5733 67.7294ZM44.5454 0C19.9427 0 0 19.944 0 44.5453C0 69.148 19.9427 89.0906 44.5454 89.0906C69.1467 89.0906 89.0907 69.148 89.0907 44.5453C89.0907 19.944 69.1467 0 44.5454 0" fill="#032A57"/>
</svg>
